<svg width="96" height="96" viewBox="0 0 96 96" fill="none" xmlns="http://www.w3.org/2000/svg">
<path d="M0 0V96H96V0H0Z" fill="#E22D2D"/>
<path d="M24.641 22.8513C24.8329 22.635 25.0248 22.4187 25.2226 22.1958C25.4796 22.2784 25.7328 22.3618 25.9851 22.456C26.0176 22.4681 26.0502 22.4801 26.0837 22.4926C26.1538 22.5186 26.224 22.5446 26.2941 22.5707C26.4863 22.6422 26.6785 22.7134 26.8708 22.7847C26.9109 22.7995 26.951 22.8144 26.9923 22.8297C27.4302 22.992 27.8688 23.1525 28.3073 23.313C28.9647 23.5536 29.6216 23.7955 30.278 24.0388C30.6254 24.1676 30.973 24.296 31.3221 24.4204C31.3478 24.4295 31.3735 24.4387 31.4 24.4481C31.516 24.4894 31.632 24.5305 31.7482 24.5711C31.7871 24.5849 31.8261 24.5987 31.8662 24.6129C31.916 24.6303 31.916 24.6303 31.9669 24.6481C32.0491 24.6829 32.0491 24.6829 32.1504 24.7674C31.9656 24.9757 31.7808 25.184 31.5903 25.3986C31.1931 25.2506 30.7959 25.1023 30.399 24.9535C30.3595 24.9387 30.32 24.9238 30.2793 24.9086C30.1864 24.8737 30.0935 24.8385 30.0007 24.8032C29.9747 24.7935 29.9487 24.7837 29.9218 24.7736C29.8237 24.736 29.7467 24.7047 29.666 24.6374C29.0547 25.3263 28.4433 26.0153 27.8135 26.7251C27.8757 26.8189 27.9379 26.9127 28.002 27.0093C28.0761 27.125 28.1485 27.2417 28.221 27.3585C28.2395 27.388 28.258 27.4176 28.277 27.4481C28.3792 27.6125 28.4755 27.7782 28.5662 27.9486C28.64 28.0856 28.722 28.218 28.8024 28.3515C28.8509 28.4363 28.8509 28.4363 28.8547 28.4817C28.8154 28.5304 28.7743 28.5776 28.7325 28.6242C28.7073 28.6526 28.682 28.6809 28.6559 28.7101C28.6292 28.7398 28.6024 28.7695 28.5749 28.8002C28.5348 28.845 28.5348 28.845 28.4939 28.8908C28.4276 28.9649 28.3612 29.039 28.2946 29.1129C27.9652 28.6356 27.6884 28.124 27.3998 27.6234C27.301 27.452 27.202 27.2806 27.1031 27.1093C27.0809 27.0709 27.0587 27.0325 27.0366 26.9941C26.8342 26.6435 26.6312 26.2934 26.4278 25.9434C26.3987 25.8934 26.3697 25.8434 26.3406 25.7934C26.2364 25.6141 26.1321 25.4347 26.0278 25.2554C25.767 24.8071 25.5082 24.3578 25.2521 23.9071C25.0976 23.6352 24.9412 23.3647 24.7791 23.097C24.7309 23.0162 24.6857 22.9339 24.641 22.8513Z" fill="#FCF3B0"/>
<path d="M72.2172 24.0274C72.4012 24.2511 72.5851 24.4748 72.7746 24.7053C72.6535 24.9397 72.5323 25.1704 72.4005 25.3982C72.3836 25.4276 72.3667 25.4571 72.3493 25.4873C72.3128 25.5507 72.2763 25.6141 72.2398 25.6774C72.1397 25.851 72.0398 26.0248 71.9399 26.1986C71.9191 26.2348 71.8983 26.271 71.8768 26.3084C71.6493 26.7041 71.4234 27.1007 71.1976 27.4974C70.8591 28.092 70.5193 28.6859 70.1783 29.279C69.9978 29.593 69.8175 29.9071 69.6411 30.2235C69.6281 30.2468 69.6151 30.2701 69.6017 30.2941C69.5431 30.3992 69.4848 30.5044 69.4268 30.6098C69.4072 30.6451 69.3877 30.6804 69.3675 30.7168C69.3426 30.762 69.3426 30.762 69.3172 30.8082C69.2702 30.8817 69.2702 30.8817 69.1712 30.965C68.9941 30.7496 68.817 30.5341 68.6345 30.3122C68.8417 29.9533 69.0491 29.5946 69.2571 29.2362C69.2778 29.2006 69.2985 29.1649 69.3198 29.1282C69.3685 29.0443 69.4175 28.9605 69.4666 28.8768C69.4802 28.8533 69.4939 28.8298 69.508 28.8056C69.5601 28.7171 69.6029 28.648 69.6818 28.5816C69.0959 27.869 68.5101 27.1565 67.9066 26.4223C67.8045 26.4662 67.7024 26.51 67.5972 26.5552C67.4715 26.6067 67.3452 26.6564 67.2189 26.7062C67.1869 26.7189 67.1548 26.7317 67.1218 26.7448C66.9439 26.815 66.7656 26.8793 66.5835 26.9373C66.4369 26.9849 66.2936 27.0411 66.1496 27.0957C66.0584 27.1277 66.0584 27.1277 66.013 27.1235C65.9711 27.0769 65.9307 27.0289 65.8912 26.9802C65.8671 26.9508 65.843 26.9214 65.8182 26.891C65.793 26.8599 65.7678 26.8288 65.7418 26.7968C65.7037 26.7501 65.7037 26.7501 65.6649 26.7025C65.6019 26.6253 65.5391 26.548 65.4763 26.4706C65.9979 26.2351 66.5454 26.0565 67.0838 25.8645C67.2681 25.7988 67.4524 25.733 67.6367 25.6671C67.678 25.6524 67.7194 25.6376 67.7607 25.6228C68.1377 25.4882 68.5145 25.3528 68.8911 25.217C68.9449 25.1976 68.9987 25.1782 69.0525 25.1588C69.2455 25.0892 69.4386 25.0196 69.6316 24.9499C70.1141 24.7758 70.5972 24.6038 71.0814 24.4345C71.3734 24.3324 71.6644 24.2283 71.9535 24.1181C72.0406 24.0856 72.1289 24.0562 72.2172 24.0274Z" fill="#FCF3B0"/>
<path d="M15.9258 85.3831H17.253V78.3047L19.0226 85.3831H20.7921L22.5617 78.3047V85.3831H23.8889V76.5352H22.1193L19.9073 83.1711L17.6954 76.5352H15.9258V85.3831Z" fill="#FCF3B0"/>
<path d="M34.0645 85.3831H35.3916V82.2863L36.7188 80.9591L39.8156 85.3831H41.5852L37.6036 80.0743L41.1428 76.5352H39.3732L35.3916 80.5167V76.5352H34.0645V85.3831Z" fill="#FCF3B0"/>
<path d="M25.2168 85.3831H26.544L27.4288 82.7287H30.9679L31.8527 85.3831H33.1799L30.0832 76.5352H28.3136L25.2168 85.3831Z" stroke="#FCF3B0" stroke-width="0.5"/>
<path d="M25.2168 85.3831H26.544L27.4288 82.7287H30.9679L31.8527 85.3831H33.1799L30.0832 76.5352H28.3136L25.2168 85.3831Z" fill="#FCF3B0"/>
<path d="M25.7688 23.3109C25.7912 23.2856 25.8137 23.2603 25.8368 23.2342C26.4543 23.4285 27.0674 23.6324 27.6798 23.8384C27.7175 23.851 27.7551 23.8636 27.7938 23.8766C27.9028 23.9132 28.0117 23.9499 28.1207 23.9867C28.1532 23.9976 28.1858 24.0085 28.2193 24.0198C28.2502 24.0303 28.2812 24.0407 28.313 24.0515C28.3396 24.0605 28.3663 24.0694 28.3937 24.0787C28.5274 24.1268 28.6589 24.1799 28.7908 24.2319C28.2818 24.8055 27.7729 25.3791 27.2485 25.97C27.1634 25.867 27.099 25.7792 27.0351 25.664C27.0122 25.623 27.0122 25.623 26.9888 25.5812C26.9534 25.5155 26.9189 25.4492 26.885 25.3826C26.8068 25.2293 26.7236 25.0792 26.6408 24.9288C26.4675 24.6141 26.4675 24.6141 26.4018 24.4844C26.3118 24.307 26.2142 24.1342 26.118 23.9606C26.0309 23.8024 25.9483 23.6429 25.872 23.4785C25.8418 23.4186 25.8079 23.3649 25.7688 23.3109Z" fill="#E22D2D"/>
<path d="M29.0367 77.8613C29.0864 77.8613 29.1361 77.8613 29.1874 77.8613C29.5764 78.6632 29.9505 79.4693 30.3215 80.2765C30.3444 80.3261 30.3672 80.3757 30.3907 80.4268C30.4568 80.5704 30.5228 80.714 30.5886 80.8577C30.6084 80.9006 30.6282 80.9435 30.6485 80.9876C30.6672 81.0285 30.6859 81.0693 30.7051 81.1113C30.7212 81.1464 30.7373 81.1815 30.7539 81.2177C30.8315 81.3969 30.9014 81.5781 30.973 81.7588C29.8454 81.7588 28.7178 81.7588 27.5561 81.7588C27.5864 81.5797 27.62 81.4351 27.6845 81.2665C27.7072 81.2063 27.7072 81.2063 27.7304 81.145C27.7681 81.0498 27.8073 80.9551 27.8475 80.8606C27.9397 80.6432 28.0236 80.4236 28.1083 80.204C28.2853 79.7445 28.2853 79.7445 28.3638 79.561C28.4711 79.3099 28.5658 79.0551 28.6629 78.801C28.7519 78.5702 28.8468 78.3427 28.9531 78.1171C28.9896 78.0324 29.0154 77.9497 29.0367 77.8613Z" fill="#E22D2D"/>
<path d="M71.592 25.0394C71.6135 25.0655 71.635 25.0917 71.6572 25.1187C71.3706 25.6827 71.075 26.2409 70.7776 26.7979C70.7593 26.8322 70.741 26.8664 70.7222 26.9017C70.6694 27.0008 70.6164 27.0999 70.5634 27.199C70.5476 27.2286 70.5318 27.2582 70.5155 27.2887C70.5005 27.3168 70.4854 27.3449 70.4698 27.3739C70.4569 27.3981 70.4439 27.4223 70.4306 27.4473C70.3625 27.5684 70.2899 27.6864 70.2184 27.8051C69.7306 27.2118 69.2429 26.6186 68.7404 26.0074C68.8552 25.943 68.9517 25.8959 69.0753 25.8542C69.1192 25.8392 69.1192 25.8392 69.164 25.8239C69.2344 25.8011 69.3051 25.7793 69.376 25.758C69.5393 25.7092 69.7002 25.6548 69.8614 25.6009C70.1986 25.4882 70.1986 25.4882 70.3367 25.4472C70.5255 25.3911 70.7111 25.3267 70.8972 25.2639C71.0667 25.2073 71.2368 25.1552 71.4107 25.11C71.4745 25.0913 71.5327 25.0678 71.592 25.0394Z" fill="#E22D2D"/>
<path d="M43.3545 85.3831H42.0273L45.1241 76.5352H46.8937L49.9905 85.3831H48.6633L47.3361 82.7287H44.2393L43.3545 85.3831Z" fill="#FCF3B0"/>
<path d="M46.0018 78.2148C46.0356 78.2148 46.0694 78.2148 46.1043 78.2148C46.3688 78.8056 46.6232 79.3996 46.8756 79.9944C46.8911 80.0309 46.9067 80.0674 46.9227 80.1051C46.9676 80.2109 47.0125 80.3167 47.0573 80.4226C47.0707 80.4542 47.0841 80.4858 47.098 80.5183C47.1107 80.5484 47.1234 80.5785 47.1364 80.6095C47.1474 80.6353 47.1584 80.6612 47.1696 80.6878C47.2224 80.8198 47.2699 80.9534 47.3186 81.0865C46.5518 81.0865 45.7849 81.0865 44.9948 81.0865C45.0155 80.9545 45.0383 80.848 45.0821 80.7238C45.0976 80.6795 45.0976 80.6795 45.1134 80.6343C45.139 80.5641 45.1657 80.4943 45.193 80.4247C45.2558 80.2646 45.3128 80.1027 45.3704 79.9409C45.4908 79.6024 45.4908 79.6024 45.5442 79.4672C45.6171 79.2822 45.6816 79.0944 45.7476 78.9072C45.8081 78.7371 45.8726 78.5695 45.9449 78.4033C45.9697 78.3409 45.9873 78.2799 46.0018 78.2148Z" fill="#E22D2D"/>
<path d="M50.876 85.3831H52.2032V81.8439H52.6456H54.4151H54.8575L55.2999 82.2863L55.7423 82.7287L56.1847 83.6135L57.0695 85.3831H58.3967V84.9407L57.9543 84.0559L57.5119 83.1711L57.0695 82.2863L56.1847 81.4015C56.5309 81.2622 56.7256 81.1697 57.0695 80.9591L57.5119 80.5167C57.8028 80.1917 57.9187 80.0006 57.9543 79.6319C58.055 79.1132 58.0637 78.8226 57.9543 78.3047C57.7856 77.7675 57.5853 77.4577 57.0695 76.9776C56.4019 76.6614 56.007 76.6101 55.2999 76.5352H50.876V85.3831Z" fill="#FCF3B0"/>
<path d="M65.4738 76.5352V77.8623H60.6075V80.0743H65.4738V81.4015H60.6075V84.0559H65.9162V85.3831H59.2803V76.5352H65.4738Z" fill="#FCF3B0"/>
<path d="M69.4561 85.3831H70.7833V77.8623H73.4377V76.5352H66.8018V77.8623H69.4561V85.3831Z" fill="#FCF3B0"/>
<path d="M33.983 23.9459L34.9296 23.4649L32.4717 18.6276L34.3648 17.6656L33.9311 16.812L29.1982 19.2168L29.632 20.0704L31.5251 19.1085L33.983 23.9459Z" fill="#FCF3B0"/>
<path d="M73.1408 37.0159L73.6552 37.9447L78.7295 35.135L79.7582 36.9927L80.6537 36.4968L78.082 31.8525L77.1866 32.3484L78.2152 34.2061L73.1408 37.0159Z" fill="#FCF3B0"/>
<path d="M40.1416 15.041C39.8916 15.1051 39.6415 15.1692 39.3839 15.2352C39.6328 16.2064 39.8818 17.1776 40.1382 18.1783C39.0612 18.4543 37.9841 18.7304 36.8744 19.0148C36.6255 18.0436 36.3766 17.0723 36.1201 16.0717C35.8797 16.1333 35.6393 16.1949 35.3916 16.2584C35.9477 18.4282 36.5038 20.5979 37.0767 22.8333C37.3171 22.7717 37.5575 22.7101 37.8052 22.6466C37.5563 21.6754 37.3074 20.7042 37.051 19.7036C38.128 19.4275 39.2051 19.1515 40.3148 18.8671C40.5637 19.8383 40.8126 20.8095 41.0691 21.8101C41.3191 21.746 41.5691 21.6819 41.8267 21.6159C41.2706 19.4462 40.7145 17.2765 40.1416 15.041Z" fill="#FCF3B0"/>
<path d="M80.2717 76.6799C80.8239 77.021 81.099 77.4422 81.3749 77.9956C81.4257 78.0906 81.4257 78.0906 81.4776 78.1874C81.4914 78.4438 81.482 78.698 81.4776 78.9549C81.0711 78.9549 80.6645 78.9549 80.2457 78.9549C80.2055 78.8401 80.1652 78.7254 80.1238 78.6071C79.9075 78.0761 79.6551 77.7235 79.0984 77.4541C78.7006 77.3036 78.3167 77.2798 77.891 77.2881C77.8188 77.2891 77.7466 77.29 77.6723 77.291C76.9445 77.3114 76.4967 77.4086 75.934 77.8577C75.6636 78.292 75.6461 78.6543 75.7287 79.1468C75.8235 79.3794 75.876 79.5012 76.1138 79.6212C76.1863 79.641 76.2588 79.6608 76.3334 79.6811C76.4162 79.704 76.499 79.7269 76.5843 79.7505C77.0758 79.8722 77.5694 79.9843 78.0642 80.0941C80.8389 80.7278 80.8389 80.7278 81.5097 81.6769C81.9299 82.3649 81.8954 83.0727 81.7242 83.8316C81.4936 84.4832 81.0594 84.9128 80.451 85.2863C79.1886 85.8431 77.6259 85.9971 76.2805 85.6101C75.7529 85.416 75.3225 85.1667 74.9074 84.8067C74.8505 84.7575 74.7936 84.7083 74.735 84.6575C74.1505 84.0896 73.8809 83.3801 73.8809 82.6003C74.4907 82.5528 74.4907 82.5528 75.1128 82.5043C75.1826 82.6824 75.2525 82.8605 75.3245 83.044C75.6424 83.7524 75.9897 84.0502 76.6976 84.411C77.5477 84.6716 78.7249 84.6362 79.5507 84.3263C79.9065 84.1399 80.1665 83.8994 80.3483 83.5596C80.4074 83.0703 80.4441 82.6493 80.1623 82.2225C79.4065 81.7656 78.5504 81.6017 77.6856 81.4071C75.2792 80.8635 75.2792 80.8635 74.6809 80.0292C74.2812 79.3919 74.2089 78.924 74.2915 78.1874C74.5437 77.4288 75.0122 76.9307 75.7375 76.536C77.1002 75.8709 78.9586 75.9802 80.2717 76.6799Z" fill="#FCF3B0"/>
<path d="M49.3217 72.5312H48.0059C47.7297 72.5312 47.5059 72.7551 47.5059 73.0312V73.611C47.5059 73.8872 47.7297 74.111 48.0059 74.111H49.3217C49.5979 74.111 49.8217 73.8872 49.8217 73.611V73.0312C49.8217 72.7551 49.5979 72.5312 49.3217 72.5312Z" fill="#FCF3B0"/>
<path d="M50.4338 69.0137H46.0098C45.2768 69.0137 44.6826 69.6079 44.6826 70.3409C44.6826 71.0738 45.2768 71.668 46.0098 71.668H50.4338C51.1668 71.668 51.761 71.0738 51.761 70.3409C51.761 69.6079 51.1668 69.0137 50.4338 69.0137Z" fill="#FCF3B0"/>
<path d="M52.2937 46.0088H44.0346C43.4147 46.0088 42.9121 46.5113 42.9121 47.1313C42.9121 47.7512 43.4147 48.2538 44.0346 48.2538H52.2937C52.9136 48.2538 53.4161 47.7512 53.4161 47.1313C53.4161 46.5113 52.9136 46.0088 52.2937 46.0088Z" fill="#FCF3B0"/>
<path d="M48.2217 23.8942C53.0026 23.766 56.9754 26.3704 60.361 29.5809C60.4434 29.6581 60.5258 29.7354 60.6107 29.8149C63.725 32.8501 66.1081 37.3848 66.8023 41.7126C66.7614 41.796 66.7206 41.8794 66.6785 41.9654C66.5777 41.8965 66.4769 41.8276 66.3731 41.7566C64.631 40.5804 62.8444 39.6009 60.8565 38.9324C60.7583 38.8987 60.6601 38.865 60.5589 38.8303C58.9853 38.3835 57.1263 38.5752 55.7004 39.3654C55.1689 39.7105 54.7096 40.0924 54.2914 40.5753C54.2256 40.6483 54.1598 40.7212 54.092 40.7964C53.059 42.0275 52.5957 43.6264 52.0617 45.1247C50.7945 45.1247 49.5273 45.1247 48.2217 45.1247C48.2217 38.8693 48.2217 32.6138 48.2217 26.1689C52.2585 26.1689 55.6643 28.1613 58.503 30.971C58.6101 31.0805 58.7173 31.19 58.8276 31.3027C58.9959 31.4741 59.1664 31.6434 59.343 31.8058C60.8415 33.2129 61.8897 35.0945 62.8313 36.9136C63.0323 37.2964 63.2448 37.6719 63.4578 38.0478C63.7055 38.0532 63.9533 38.053 64.201 38.0478C64.2419 38.0061 64.2828 37.9644 64.3249 37.9215C64.2888 37.1203 63.9879 36.5415 63.6049 35.8521C63.5444 35.7419 63.4839 35.6317 63.4215 35.5182C62.5619 33.9818 61.5847 32.5514 60.3891 31.2677C60.143 31.003 59.9151 30.7309 59.6875 30.4497C59.154 29.8253 58.5229 29.3294 57.8836 28.8227C57.709 28.6817 57.709 28.6817 57.5309 28.5379C55.9484 27.2885 54.3081 26.3678 52.4333 25.6634C52.2355 25.5874 52.2355 25.5874 52.0336 25.5099C50.8008 25.0793 49.5095 25.0166 48.2217 24.8549C48.2217 24.563 48.2217 24.195 48.2217 23.8942Z" fill="#FCF3B0"/>
<path d="M49.1064 23.8942C43.8702 23.766 39.519 26.3704 35.811 29.5809C35.7207 29.6581 35.6305 29.7354 35.5375 29.8149C32.1266 32.8501 29.5166 37.3848 28.7562 41.7126C28.801 41.796 28.8458 41.8794 28.8919 41.9654C29.0022 41.8965 29.1126 41.8276 29.2263 41.7566C31.1344 40.5804 33.0911 39.6009 35.2683 38.9324C35.3758 38.8987 35.4834 38.865 35.5942 38.8303C37.3177 38.3835 39.3537 38.5752 40.9155 39.3654C41.4976 39.7105 42.0006 40.0924 42.4587 40.5753C42.5308 40.6483 42.6028 40.7212 42.677 40.7964C43.8084 42.0275 44.3158 43.6264 44.9007 45.1247C46.2886 45.1247 47.6765 45.1247 49.1064 45.1247C49.1064 38.8693 49.1064 32.6138 49.1064 26.1689C44.6852 26.1689 40.955 28.1613 37.846 30.971C37.7286 31.0805 37.6113 31.19 37.4904 31.3027C37.3061 31.4741 37.1194 31.6434 36.926 31.8058C35.2847 33.2129 34.1367 35.0945 33.1055 36.9136C32.8853 37.2964 32.6525 37.6719 32.4193 38.0478C32.148 38.0532 31.8765 38.053 31.6052 38.0478C31.5605 38.0061 31.5157 37.9644 31.4696 37.9215C31.5091 37.1203 31.8386 36.5415 32.2582 35.8521C32.3244 35.7419 32.3907 35.6317 32.459 35.5182C33.4005 33.9818 34.4707 32.5514 35.7802 31.2677C36.0498 31.003 36.2994 30.7309 36.5487 30.4497C37.133 29.8253 37.8242 29.3294 38.5243 28.8227C38.7156 28.6817 38.7156 28.6817 38.9107 28.5379C40.6438 27.2885 42.4404 26.3678 44.4937 25.6634C44.7104 25.5874 44.7104 25.5874 44.9315 25.5099C46.2817 25.0793 47.6959 25.0166 49.1064 24.8549C49.1064 24.563 49.1064 24.195 49.1064 23.8942Z" fill="#FCF3B0"/>
<path d="M51.373 49.5488H45.7791C44.3132 57.0606 44.321 61.1255 45.7791 68.1295H51.6503C52.9009 60.4221 53.1466 54.9681 51.373 49.5488Z" fill="#FCF3B0"/>
<path d="M48.0259 63.6377C48.1963 63.5388 48.3943 63.4988 48.5894 63.5239C48.7846 63.5489 48.9662 63.6376 49.1065 63.7763C49.2467 63.915 49.3379 64.0962 49.3659 64.2919C49.394 64.4877 49.3574 64.6874 49.2618 64.8602C49.1662 65.0331 49.0168 65.1697 48.8366 65.2491C48.6563 65.3284 48.4552 65.3462 48.264 65.2997C48.0727 65.2531 47.902 65.1448 47.7778 64.9914C47.6537 64.8379 47.583 64.6478 47.5766 64.4501L47.5762 64.4208L47.5766 64.3915C47.5816 64.2378 47.6254 64.088 47.7041 63.9561C47.7827 63.8242 47.8934 63.7146 48.0259 63.6377Z" fill="#E22D2D"/>
<path d="M47.9439 52.1641C48.1143 52.0652 48.3122 52.0252 48.5074 52.0502C48.7026 52.0753 48.8842 52.1639 49.0245 52.3027C49.1647 52.4414 49.2558 52.6225 49.2839 52.8183C49.3119 53.0141 49.2753 53.2137 49.1797 53.3866C49.0841 53.5595 48.9348 53.6961 48.7545 53.7754C48.5743 53.8548 48.3732 53.8726 48.1819 53.826C47.9907 53.7795 47.8199 53.6712 47.6958 53.5178C47.5716 53.3643 47.501 53.1742 47.4946 52.9765L47.4941 52.9472L47.4946 52.9179C47.4996 52.7642 47.5434 52.6143 47.622 52.4824C47.7006 52.3505 47.8114 52.241 47.9439 52.1641Z" fill="#E22D2D"/>
<path d="M16.8189 39.0518C16.9893 38.9529 17.1872 38.9129 17.3824 38.9379C17.5776 38.963 17.7592 39.0516 17.8995 39.1904C18.0397 39.3291 18.1308 39.5102 18.1589 39.706C18.1869 39.9018 18.1503 40.1014 18.0547 40.2743C17.9591 40.4472 17.8098 40.5838 17.6295 40.6631C17.4493 40.7425 17.2482 40.7603 17.0569 40.7137C16.8657 40.6672 16.6949 40.5589 16.5708 40.4054C16.4466 40.252 16.376 40.0619 16.3696 39.8642L16.3691 39.8349L16.3696 39.8056C16.3746 39.6519 16.4184 39.502 16.497 39.3701C16.5756 39.2382 16.6864 39.1287 16.8189 39.0518Z" fill="#FCF3B0"/>
<path d="M77.8697 39.0518C78.0401 38.9529 78.238 38.9129 78.4332 38.9379C78.6284 38.963 78.81 39.0516 78.9502 39.1904C79.0905 39.3291 79.1816 39.5102 79.2097 39.706C79.2377 39.9018 79.2011 40.1014 79.1055 40.2743C79.0099 40.4472 78.8605 40.5838 78.6803 40.6631C78.5001 40.7425 78.299 40.7603 78.1077 40.7137C77.9165 40.6672 77.7457 40.5589 77.6216 40.4054C77.4974 40.252 77.4267 40.0619 77.4204 39.8642L77.4199 39.8349L77.4204 39.8056C77.4253 39.6519 77.4692 39.502 77.5478 39.3701C77.6264 39.2382 77.7372 39.1287 77.8697 39.0518Z" fill="#FCF3B0"/>
<path d="M52.2021 77.8613V80.5157H55.7413L55.744 80.5141C56.2 80.2456 56.4563 80.0946 56.6261 79.6309V78.7461C56.4452 78.3152 56.2626 78.1208 55.7413 77.8613H52.2021Z" fill="#E22D2D"/>
<path d="M19.8633 29.0137C20.828 27.9332 21.7927 26.8527 22.7867 25.7394C22.9537 25.8885 23.1206 26.0376 23.2927 26.1912C22.5255 27.0505 21.7582 27.9098 20.9678 28.7951C21.4832 29.2554 21.9987 29.7156 22.5298 30.1898C23.2438 29.39 23.9579 28.5903 24.6936 27.7663C24.8533 27.909 25.013 28.0516 25.1776 28.1985C24.4635 28.9982 23.7495 29.798 23.0138 30.6219C23.5365 31.0886 24.0592 31.5554 24.5978 32.0362C25.3726 31.1684 26.1474 30.3006 26.9457 29.4065C27.1054 29.5491 27.2652 29.6917 27.4297 29.8387C26.4574 30.9277 25.4851 32.0167 24.4833 33.1387C22.9587 31.7774 21.4341 30.4162 19.8633 29.0137Z" fill="#FCF3B0"/>
<path d="M42.8916 14.6475C44.3391 14.5937 45.7866 14.54 47.278 14.4846C47.287 14.7285 47.2961 14.9724 47.3054 15.2236C46.1542 15.2664 45.0031 15.3091 43.817 15.3531C43.845 16.1059 43.8729 16.8588 43.9017 17.6344C44.9731 17.5946 46.0445 17.5549 47.1483 17.5139C47.157 17.7471 47.1656 17.9804 47.1746 18.2207C46.1032 18.2605 45.0318 18.3003 43.9279 18.3413C43.9563 19.1047 43.9846 19.8681 44.0138 20.6546C45.1764 20.6115 46.3389 20.5683 47.5367 20.5239C47.5454 20.7571 47.554 20.9904 47.563 21.2307C46.1041 21.2849 44.6452 21.3391 43.142 21.3948C43.0594 19.1682 42.9768 16.9416 42.8916 14.6475Z" fill="#FCF3B0"/>
<path d="M35.834 48.6631C36.9612 48.6631 38.0885 48.6631 39.2499 48.6631C39.2499 48.8638 39.2499 49.0646 39.2499 49.2714C38.3463 49.2714 37.4427 49.2714 36.5118 49.2714C36.5118 49.9192 36.5118 50.567 36.5118 51.2345C37.3527 51.2345 38.1937 51.2345 39.0602 51.2345C39.0602 51.4353 39.0602 51.636 39.0602 51.8428C38.2192 51.8428 37.3782 51.8428 36.5118 51.8428C36.5118 52.4906 36.5118 53.1385 36.5118 53.8059C37.4332 53.8059 38.3547 53.8059 39.3041 53.8059C39.3041 54.0158 39.3041 54.2257 39.3041 54.4419C38.159 54.4419 37.0138 54.4419 35.834 54.4419C35.834 52.5349 35.834 50.6279 35.834 48.6631Z" fill="#FCF3B0"/>
<path d="M33.7592 48.7698C33.7906 48.7788 33.8221 48.7879 33.8546 48.7973C34.3882 48.9707 34.8543 49.3647 35.1142 49.8724C35.2202 50.0972 35.3045 50.3153 35.3045 50.567C35.0808 50.567 34.8571 50.567 34.6267 50.567C34.6122 50.5179 34.5976 50.4689 34.5826 50.4184C34.527 50.2488 34.4548 50.1056 34.3556 49.9587C34.3446 49.9417 34.3336 49.9248 34.3223 49.9073C34.099 49.6027 33.6954 49.4343 33.3406 49.3711C32.818 49.3022 32.3441 49.4123 31.9224 49.7427C31.5162 50.0998 31.3127 50.6167 31.2379 51.1476C31.2016 51.954 31.2114 52.7414 31.753 53.3873C31.7696 53.4073 31.7862 53.4273 31.8034 53.448C32.0534 53.7251 32.4387 53.9226 32.8099 53.9433C33.3666 53.959 33.8437 53.8578 34.2675 53.4633C34.455 53.2617 34.535 53.0086 34.6267 52.7513C34.8504 52.7513 35.074 52.7513 35.3045 52.7513C35.3045 53.2408 34.9951 53.6689 34.6775 54.0111C34.2498 54.4465 33.6542 54.6361 33.0611 54.6436C32.3437 54.639 31.7637 54.3832 31.2576 53.8652C30.6208 53.1804 30.5048 52.2186 30.5281 51.3167C30.5552 50.557 30.8709 49.8019 31.4104 49.2737C31.6502 49.0672 31.915 48.8982 32.2139 48.7974C32.2593 48.7812 32.2593 48.7812 32.3057 48.7647C32.7634 48.6237 33.3012 48.6332 33.7592 48.7698Z" fill="#FCF3B0"/>
<path d="M59.6807 16.4775C59.7126 16.4962 59.7446 16.515 59.7775 16.5344C60.3133 16.8725 60.7132 17.4184 60.8553 18.0202C60.9083 18.2839 60.9393 18.5342 60.8686 18.7942C60.6236 18.7275 60.3785 18.6608 60.1261 18.5921C60.1239 18.5371 60.1218 18.4822 60.1196 18.4255C60.1063 18.2339 60.0674 18.0644 60 17.8831C59.9927 17.8623 59.9855 17.8415 59.978 17.8201C59.8189 17.4389 59.4241 17.1447 59.0532 16.9738C58.5 16.7467 57.9499 16.7192 57.3951 16.9347C56.8497 17.1824 56.4815 17.6555 56.2503 18.1816C55.984 19.0035 55.7734 19.8196 56.1853 20.6481C56.1979 20.6737 56.2105 20.6993 56.2235 20.7258C56.4195 21.0865 56.7861 21.4053 57.1869 21.5373C57.7924 21.7195 58.3435 21.7572 58.9186 21.4761C59.1807 21.3239 59.3394 21.0863 59.5123 20.8479C59.7573 20.9146 60.0023 20.9813 60.2548 21.05C60.1172 21.5554 59.658 21.9054 59.2139 22.1641C58.623 22.4863 57.9171 22.5045 57.2653 22.3354C56.4807 22.1168 55.9172 21.6797 55.5083 20.994C55.0031 20.0969 55.1462 19.0691 55.4253 18.1446C55.6684 17.3681 56.2264 16.6824 56.9659 16.2978C57.2867 16.1559 57.6242 16.0604 57.98 16.0454C58.0343 16.0422 58.0343 16.0422 58.0898 16.0389C58.6309 16.0298 59.2174 16.2 59.6807 16.4775Z" fill="#FCF3B0"/>
<path d="M25.2168 48.6631C25.4405 48.6631 25.6641 48.6631 25.8946 48.6631C26.0814 48.871 26.0814 48.871 26.1262 48.972C26.1972 49.1199 26.2881 49.2488 26.3826 49.382C26.4151 49.4292 26.4476 49.4764 26.48 49.5237C26.4956 49.5465 26.5113 49.5693 26.5274 49.5928C26.6046 49.7057 26.6809 49.8193 26.7571 49.9328C26.8573 50.0817 26.9587 50.2296 27.0603 50.3774C27.1741 50.5427 27.2873 50.7084 27.3992 50.8751C27.5084 51.0376 27.6187 51.1993 27.7296 51.3607C27.9938 51.745 28.2574 52.1296 28.5175 52.5168C28.6237 52.6745 28.7303 52.8318 28.8378 52.9885C28.8517 53.009 28.8656 53.0295 28.8799 53.0506C28.8929 53.0695 28.9058 53.0883 28.9192 53.1077C28.9306 53.1244 28.9421 53.1411 28.9539 53.1584C28.9842 53.2019 28.9842 53.2019 29.0394 53.2253C29.0394 51.7198 29.0394 50.2142 29.0394 48.6631C29.2631 48.6631 29.4867 48.6631 29.7172 48.6631C29.7172 50.5792 29.7172 52.4953 29.7172 54.4695C29.4935 54.4695 29.2698 54.4695 29.0394 54.4695C28.9355 54.3622 28.9022 54.3221 28.8495 54.1946C28.7935 54.0768 28.7128 53.9739 28.6378 53.8682C28.6045 53.82 28.5713 53.7717 28.5382 53.7234C28.522 53.6999 28.5058 53.6764 28.4892 53.6522C28.4235 53.5564 28.3586 53.46 28.2939 53.3635C28.1819 53.1969 28.0687 53.0312 27.955 52.8659C27.8424 52.7022 27.7303 52.5382 27.6195 52.3733C27.4256 52.0848 27.2292 51.798 27.0332 51.511C26.9581 51.401 26.883 51.291 26.8079 51.1809C26.7897 51.1543 26.7715 51.1278 26.7528 51.1003C26.6492 50.9484 26.5461 50.7962 26.4436 50.6435C26.3374 50.4858 26.2308 50.3285 26.1233 50.1717C26.1094 50.1512 26.0955 50.1307 26.0811 50.1096C26.0617 50.0814 26.0617 50.0814 26.0419 50.0526C26.0247 50.0275 26.0247 50.0275 26.0072 50.0019C25.9769 49.9584 25.9769 49.9584 25.9217 49.935C25.9217 51.4314 25.9217 52.9278 25.9217 54.4695C25.6891 54.4695 25.4565 54.4695 25.2168 54.4695C25.2168 52.5534 25.2168 50.6373 25.2168 48.6631Z" fill="#FCF3B0"/>
<path d="M23.4473 48.6631C23.6709 48.6631 23.8946 48.6631 24.125 48.6631C24.125 50.5701 24.125 52.4771 24.125 54.4419C23.9014 54.4419 23.6777 54.4419 23.4473 54.4419C23.4473 52.5349 23.4473 50.6279 23.4473 48.6631Z" fill="#FCF3B0"/>
<path d="M21.5208 49.0723C21.6209 49.1548 21.7104 49.245 21.7986 49.3406C21.8175 49.3611 21.8365 49.3816 21.856 49.4027C22.0653 49.6523 22.1239 49.9006 22.1239 50.2254C21.9092 50.2254 21.6945 50.2254 21.4733 50.2254C21.4523 50.151 21.4523 50.151 21.4309 50.0751C21.3468 49.8212 21.2176 49.6443 20.9843 49.5162C20.5714 49.3242 20.1173 49.2581 19.675 49.3949C19.404 49.5022 19.1626 49.6548 19.0198 49.9213C18.9443 50.12 18.9414 50.3756 19.0021 50.5789C19.1764 50.9304 19.5365 51.0663 19.8814 51.183C20.0663 51.2433 20.2536 51.2934 20.4414 51.3435C21.0917 51.5186 21.6866 51.7249 22.0771 52.3206C22.192 52.5393 22.2203 52.7368 22.2188 52.9835C22.2187 53.0128 22.2186 53.0421 22.2184 53.0723C22.2134 53.3027 22.1803 53.478 22.0697 53.6816C22.0567 53.7067 22.0436 53.7318 22.0302 53.7577C21.7793 54.2114 21.3672 54.4594 20.8817 54.5993C20.839 54.6104 20.839 54.6104 20.7955 54.6217C20.7596 54.6311 20.7596 54.6311 20.7229 54.6407C20.0943 54.7745 19.3962 54.6806 18.8435 54.3452C18.7452 54.2785 18.6577 54.2073 18.5724 54.124C18.5463 54.0986 18.5463 54.0986 18.5197 54.0726C18.2666 53.8022 18.1387 53.4423 18.1387 53.0733C18.3713 53.0733 18.6039 53.0733 18.8435 53.0733C18.8614 53.1554 18.8793 53.2376 18.8978 53.3222C19.0121 53.5916 19.1522 53.7478 19.4129 53.8752C19.9171 54.0633 20.4134 54.0762 20.9134 53.8644C21.2226 53.7159 21.3683 53.5638 21.5004 53.2392C21.5586 53.0525 21.5515 52.8334 21.4742 52.6542C21.3371 52.4055 21.1109 52.2774 20.8548 52.1834C20.8337 52.1754 20.8125 52.1675 20.7907 52.1594C20.5768 52.0821 20.3585 52.0212 20.1399 51.9592C18.7889 51.576 18.7889 51.576 18.4401 50.998C18.3279 50.7767 18.2642 50.5747 18.2674 50.3256C18.2677 50.3048 18.2679 50.284 18.2681 50.2626C18.2764 49.8411 18.4417 49.5261 18.7351 49.23C18.7592 49.2041 18.7592 49.2041 18.7837 49.1776C19.4602 48.5029 20.7846 48.517 21.5208 49.0723Z" fill="#FCF3B0"/>
<path d="M65.0206 48.6632C65.0596 48.6635 65.0596 48.6635 65.0993 48.6637C65.2982 48.6679 65.4687 48.6906 65.6533 48.772C65.6757 48.7818 65.698 48.7917 65.7211 48.8018C66.1734 49.0298 66.4335 49.4768 66.5953 49.9511C66.8998 50.8896 66.8741 52.1025 66.4751 53.0093C66.4089 53.1416 66.3317 53.2628 66.246 53.3824C66.2334 53.4003 66.2208 53.4181 66.2078 53.4365C65.9625 53.755 65.5906 53.9183 65.2077 53.9642C64.8083 53.9999 64.3967 53.9136 64.0767 53.6529C63.714 53.3281 63.5195 52.9243 63.401 52.4505C63.394 52.4225 63.3869 52.3945 63.3797 52.3656C63.1697 51.4088 63.2166 50.2098 63.7329 49.3606C64.0435 48.9051 64.4814 48.6578 65.0206 48.6632ZM64.5864 49.336C64.57 49.3461 64.5536 49.3563 64.5368 49.3667C64.1842 49.6135 64.0307 50.0564 63.9484 50.4704C63.8495 51.0294 63.8452 51.6761 63.97 52.2298C63.9741 52.248 63.9781 52.2662 63.9823 52.285C64.0681 52.6532 64.2163 53.0501 64.5414 53.2577C64.7924 53.3909 65.0544 53.4306 65.3317 53.3548C65.4484 53.3121 65.5372 53.2456 65.6296 53.1617C65.6434 53.1502 65.6573 53.1387 65.6715 53.1269C66.0213 52.8092 66.1256 52.2257 66.1556 51.77C66.2 51.0106 66.1957 50.1438 65.7038 49.5255C65.5609 49.3656 65.3716 49.2456 65.1583 49.2321C64.9518 49.227 64.7691 49.2232 64.5864 49.336Z" fill="#FCF3B0"/>
<path d="M74.3289 48.6631C74.3734 48.664 74.3734 48.664 74.4187 48.665C74.4424 48.6652 74.4424 48.6652 74.4666 48.6655C74.517 48.6661 74.5674 48.6679 74.6177 48.6696C74.6519 48.6701 74.6861 48.6706 74.7202 48.671C74.9693 48.6752 74.9693 48.6752 74.9976 48.7056C74.9998 48.752 75.0004 48.7984 75.0004 48.8448C75.0004 48.8901 75.0004 48.8901 75.0005 48.9363C75.0004 48.9701 75.0003 49.0039 75.0002 49.0377C75.0002 49.073 75.0002 49.1083 75.0002 49.1437C75.0002 49.2399 75.0001 49.3361 74.9999 49.4323C74.9998 49.5327 74.9998 49.6332 74.9997 49.7336C74.9997 49.924 74.9995 50.1143 74.9992 50.3046C74.999 50.5212 74.9989 50.7379 74.9987 50.9545C74.9985 51.4002 74.9981 51.8459 74.9976 52.2917C75.2127 52.2917 75.4279 52.2917 75.6495 52.2917C75.6495 52.4903 75.6495 52.6889 75.6495 52.8935C75.4344 52.8935 75.2192 52.8935 74.9976 52.8935C74.9976 53.2494 74.9976 53.6052 74.9976 53.9718C74.7978 53.9718 74.598 53.9718 74.3922 53.9718C74.3922 53.616 74.3922 53.2602 74.3922 52.8935C73.6392 52.8935 72.8862 52.8935 72.1104 52.8935C72.1104 52.2324 72.1104 52.2324 72.269 52.0205C72.3014 51.9724 72.3338 51.9242 72.3661 51.8759C72.3821 51.8529 72.3981 51.8299 72.4146 51.8062C72.4786 51.712 72.534 51.6132 72.5891 51.5127C72.7228 51.2739 72.8624 51.0392 73.0018 50.8042C73.063 50.701 73.1237 50.5975 73.1843 50.494C73.2013 50.4649 73.2013 50.4649 73.2187 50.4353C73.2415 50.3964 73.2642 50.3576 73.2869 50.3188C73.3449 50.2199 73.4028 50.121 73.4608 50.0222C73.4841 49.9825 73.5074 49.9428 73.5307 49.9031C73.6005 49.784 73.6005 49.784 73.6704 49.6648C73.6819 49.6452 73.6935 49.6255 73.7054 49.6052C73.7285 49.5658 73.7516 49.5263 73.7747 49.4869C73.8353 49.3836 73.8959 49.2803 73.9563 49.1769C73.9689 49.1555 73.9814 49.1341 73.9944 49.112C74.0183 49.0711 74.0422 49.0303 74.066 48.9894C74.0769 48.9709 74.0878 48.9523 74.099 48.9332C74.1084 48.9171 74.1178 48.9009 74.1276 48.8843C74.138 48.8667 74.1485 48.8491 74.1593 48.831C74.1791 48.7911 74.1791 48.7911 74.1993 48.7504C74.2525 48.6806 74.2525 48.6806 74.3289 48.6631ZM74.3689 49.5332C74.3467 49.5672 74.3257 49.602 74.3051 49.6371C74.2919 49.6596 74.2788 49.682 74.2652 49.7051C74.2509 49.7296 74.2366 49.7541 74.2219 49.7793C74.2072 49.8043 74.1925 49.8293 74.1774 49.8551C74.1325 49.9317 74.0877 50.0083 74.0429 50.0849C74.0183 50.1269 73.9936 50.1689 73.969 50.2109C73.9004 50.3276 73.8319 50.4445 73.7635 50.5614C73.6165 50.8124 73.4692 51.0633 73.3211 51.3137C73.2802 51.3829 73.2393 51.4522 73.1983 51.5215C73.1717 51.5665 73.145 51.6116 73.1184 51.6567C73.0806 51.7205 73.043 51.7843 73.0053 51.8481C72.9942 51.8668 72.9832 51.8855 72.9717 51.9048C72.897 52.0317 72.8303 52.1598 72.7623 52.2917C73.3002 52.2917 73.838 52.2917 74.3922 52.2917C74.3922 51.3814 74.3922 50.4711 74.3922 49.5332C74.3845 49.5332 74.3768 49.5332 74.3689 49.5332Z" fill="#FCF3B0"/>
<path d="M60.5769 48.6643C60.6188 48.6637 60.6188 48.6637 60.6616 48.6631C61.1023 48.6628 61.4987 48.8037 61.8176 49.0888C62.114 49.3666 62.2704 49.7058 62.2799 50.0997C62.2738 50.5924 62.0397 51.0092 61.7128 51.3842C61.6936 51.4068 61.6744 51.4295 61.6547 51.4529C61.5275 51.6014 61.393 51.7422 61.2544 51.8813C61.1987 51.9374 61.1447 51.9947 61.0911 52.0525C60.9945 52.1561 60.8943 52.2563 60.7931 52.3561C60.7554 52.3934 60.7177 52.4307 60.68 52.4681C60.6612 52.4866 60.6425 52.5051 60.6232 52.5242C60.528 52.6187 60.4334 52.7137 60.3387 52.8087C60.221 52.9268 60.103 53.0446 59.9849 53.1623C59.9667 53.1805 59.9485 53.1986 59.9297 53.2173C59.8854 53.2615 59.8411 53.3056 59.7968 53.3498C59.8288 53.3501 59.8607 53.3503 59.8936 53.3506C60.194 53.353 60.4943 53.3556 60.7947 53.3582C60.9491 53.3596 61.1036 53.361 61.258 53.3622C61.4069 53.3634 61.5558 53.3647 61.7047 53.366C61.7616 53.3666 61.8186 53.367 61.8755 53.3674C61.955 53.368 62.0344 53.3688 62.1139 53.3696C62.1377 53.3697 62.1615 53.3699 62.186 53.37C62.3484 53.3718 62.3484 53.3718 62.378 53.3996C62.378 53.5884 62.378 53.7773 62.378 53.9718C61.2101 53.9718 60.0422 53.9718 58.8389 53.9718C58.8389 53.4742 58.8389 53.4742 58.9087 53.3669C58.9472 53.336 58.9861 53.3055 59.0251 53.2752C59.0887 53.2142 59.1499 53.1513 59.2114 53.0885C59.2444 53.0556 59.2774 53.0227 59.3104 52.9898C59.3718 52.9283 59.4321 52.8662 59.4908 52.8024C59.5957 52.6884 59.7066 52.5796 59.8165 52.4699C59.9249 52.3616 60.0318 52.2523 60.1375 52.1418C60.2042 52.0723 60.2715 52.0034 60.339 51.9347C60.3513 51.9221 60.3636 51.9096 60.3763 51.8966C60.4378 51.834 60.4993 51.7715 60.5612 51.7092C61.322 50.9711 61.322 50.9711 61.5869 50.0161C61.5762 49.8041 61.4788 49.6469 61.3249 49.4943C61.0229 49.2557 60.6784 49.2428 60.3024 49.2692C60.0369 49.318 59.8244 49.458 59.6703 49.6642C59.5635 49.8346 59.5418 50.0211 59.5041 50.2147C59.2846 50.2147 59.0651 50.2147 58.8389 50.2147C58.8613 49.7376 59.0189 49.3495 59.3977 49.0204C59.7508 48.7642 60.1372 48.6631 60.5769 48.6643Z" fill="#FCF3B0"/>
<path d="M70.5236 48.9751C70.8366 49.1921 71.0506 49.5155 71.1193 49.8746C71.1844 50.5626 70.882 51.0432 70.426 51.5556C70.2777 51.7201 70.1234 51.8795 69.9669 52.0372C69.8966 52.108 69.8268 52.1793 69.7571 52.2507C69.6017 52.4093 69.4434 52.5655 69.2854 52.7219C69.1809 52.8254 69.0764 52.9291 68.9721 53.0329C68.9571 53.0478 68.9421 53.0626 68.9267 53.078C68.9125 53.0921 68.8983 53.1063 68.8837 53.1209C68.8654 53.1391 68.8654 53.1391 68.8467 53.1576C68.7864 53.2206 68.7291 53.2861 68.6711 53.351C69.5141 53.3592 70.3571 53.3674 71.2257 53.3759C71.2257 53.5725 71.2257 53.7692 71.2257 53.9718C70.0578 53.9718 68.8898 53.9718 67.6865 53.9718C67.6865 53.4752 67.6865 53.4752 67.7673 53.3468C67.8193 53.3 67.8193 53.3 67.8745 53.2579C67.9097 53.2276 67.945 53.1972 67.9802 53.1667C67.9978 53.1522 68.0154 53.1377 68.0336 53.1228C68.1036 53.0624 68.1645 52.9964 68.2263 52.9288C68.3009 52.8479 68.3798 52.7707 68.4582 52.693C68.6002 52.5521 68.6002 52.5521 68.7376 52.4074C68.8425 52.2937 68.9534 52.1851 69.0633 52.0756C69.1717 51.9676 69.2785 51.8586 69.3841 51.7482C69.4393 51.691 69.4952 51.6344 69.5514 51.578C69.6993 51.4289 69.84 51.2757 69.975 51.1162C70.0055 51.081 70.0055 51.081 70.0365 51.0451C70.3092 50.7206 70.4873 50.3974 70.4417 49.9767C70.4209 49.8647 70.3816 49.774 70.3209 49.6759C70.3075 49.6527 70.3075 49.6527 70.2937 49.6289C70.1633 49.4308 69.9165 49.3327 69.6823 49.2786C69.5943 49.2684 69.5081 49.2668 69.4195 49.2678C69.3962 49.268 69.3728 49.2682 69.3488 49.2684C69.0554 49.2755 68.829 49.3576 68.6179 49.5518C68.4431 49.7479 68.4078 49.9748 68.3784 50.2222C68.1589 50.2222 67.9393 50.2222 67.7131 50.2222C67.7131 49.7868 67.834 49.423 68.1655 49.1048C68.8158 48.5606 69.8077 48.5214 70.5236 48.9751Z" fill="#FCF3B0"/>
<path d="M72.9777 14.1711C74.069 15.0794 75.101 16.0414 76.12 17.0311C76.316 17.2164 76.5121 17.4017 76.714 17.5926C82.1686 22.8737 85.7696 30.2319 87.2738 37.6337C87.3658 38.0768 87.3658 38.0768 87.4596 38.5288C87.8962 40.7413 88.0581 42.8723 88.0332 45.1261C88.0278 45.6458 88.0286 46.1652 88.0301 46.6849C88.0243 50.0271 87.7296 53.2708 86.7901 56.4909C86.7205 56.7337 86.651 56.9766 86.5793 57.2268C85.9156 59.4735 85.09 61.6161 84.087 63.7304C84.009 63.8954 83.9311 64.0605 83.8507 64.2305C81.7103 68.682 78.7167 72.6364 75.2095 76.092C74.7685 75.906 74.7685 75.906 74.299 75.6342C74.2239 75.4075 74.1488 75.1809 74.0714 74.9474C74.2639 74.7963 74.4564 74.6452 74.6547 74.4896C81.3151 68.9041 85.251 59.359 86.3633 50.911C86.4078 50.5781 86.4078 50.5781 86.4531 50.2385C87.549 39.8931 84.547 29.4357 78.0554 21.3378C77.1513 20.2403 76.1931 19.2018 75.2095 18.1757C75.0587 18.0122 74.9079 17.8487 74.7525 17.6803C68.761 11.3523 59.1452 7.16286 50.5406 6.90163C49.6632 6.88168 48.786 6.87462 47.9084 6.87283C47.7421 6.87231 47.5758 6.87179 47.4045 6.87126C36.4232 6.87514 26.8568 11.3579 19.0422 18.9626C12.7265 25.4722 8.32479 35.0075 8.23257 44.1445C8.23033 44.3268 8.22809 44.5091 8.22579 44.6969C8.115 56.0568 11.4458 66.0017 19.4166 74.249C19.7253 74.561 20.0377 74.8692 20.3511 75.1763C20.2009 75.4785 20.0506 75.7807 19.8959 76.092C19.0119 76.092 18.7561 75.7273 18.147 75.1271C18.0105 74.9875 17.874 74.848 17.7334 74.7042C17.5919 74.5603 17.4504 74.4165 17.3047 74.2683C13.1453 69.9423 10.4416 64.5652 8.51444 58.9231C8.43932 58.7036 8.36421 58.484 8.28681 58.2578C7.81318 56.7693 7.51633 55.2351 7.23903 53.6988C7.17236 53.3309 7.10174 52.9637 7.02897 52.5969C6.68639 50.7577 6.62261 48.9736 6.63651 47.1052C6.63729 46.9545 6.63807 46.8038 6.63888 46.6486C6.69755 36.9732 9.82983 27.3447 16.2538 20.007C16.4225 19.8123 16.5912 19.6175 16.7651 19.4168C17.27 18.843 17.7831 18.2785 18.3025 17.7178C18.4583 17.5487 18.6141 17.3797 18.7746 17.2054C32.9162 2.40533 57.2737 1.43754 72.9777 14.1711Z" fill="#FCF3B0"/>
<path d="M47.3431 8.84908C47.5458 8.84921 47.7485 8.84933 47.9574 8.84946C50.9962 8.85797 53.8775 9.00086 56.8139 9.84204C57.0876 9.91681 57.0876 9.91681 57.3667 9.99309C63.6205 11.7257 69.135 14.775 73.7968 19.2791C74.1032 19.5737 74.4151 19.8627 74.7275 20.1511C81.3072 26.3806 85.0205 35.8092 85.3715 44.7401C85.5658 52.993 83.3499 61.7575 78.2336 68.3982C78.0871 68.591 77.9405 68.7838 77.7895 68.9825C76.3863 70.7755 74.8475 72.4516 73.2633 74.0865C73.102 74.2529 72.9407 74.4194 72.7746 74.5909C72.2993 74.9883 72.0041 75.1189 71.3976 75.2071C71.2472 74.9075 71.0968 74.6079 70.9418 74.2992C71.1207 74.1401 71.2996 73.9809 71.4839 73.817C77.2535 68.6466 81.3234 61.8935 83.0189 54.3266C83.1079 53.9417 83.1079 53.9417 83.1987 53.549C83.6754 51.2988 83.8092 49.1359 83.7916 46.839C83.788 46.2698 83.7916 45.7011 83.796 45.132C83.799 42.7458 83.5549 40.54 83.0189 38.2123C82.9198 37.7803 82.9198 37.7803 82.8188 37.3395C80.6699 28.3357 74.7933 20.4471 66.9264 15.5846C62.5508 12.9629 57.9633 11.3815 52.9402 10.5229C52.6265 10.4644 52.6265 10.4644 52.3064 10.4046C50.9596 10.2051 49.5997 10.2406 48.2404 10.2392C48.0827 10.239 47.925 10.2388 47.7625 10.2385C45.1085 10.2411 42.5515 10.426 39.9516 10.9769C39.792 11.0097 39.6323 11.0425 39.4677 11.0763C30.0498 13.0614 21.857 19.0691 16.5885 27.0207C11.407 35.1259 9.53466 45.4568 11.6196 54.8691C13.4841 62.4412 17.5097 68.7084 23.0893 74.0723C22.9389 74.3719 22.7885 74.6715 22.6336 74.9801C20.0937 74.1398 18.2468 71.1595 16.709 69.0791C16.6114 68.9478 16.5139 68.8165 16.4134 68.6813C10.9417 61.212 8.32491 51.3153 9.61573 42.1338C9.75513 41.2755 9.91869 40.4244 10.1008 39.5741C10.1337 39.4178 10.1667 39.2615 10.2006 39.1005C11.0164 35.3365 12.3648 31.8356 14.2024 28.4529C14.3998 28.0882 14.3998 28.0882 14.6012 27.7162C16.0522 25.1435 17.8634 22.8721 19.8992 20.7362C20.0048 20.6236 20.1104 20.511 20.2193 20.395C25.6035 14.6842 32.5396 11.0896 40.1795 9.38812C40.3784 9.34369 40.5773 9.29925 40.7823 9.25347C42.9557 8.83029 45.1372 8.84405 47.3431 8.84908Z" fill="#FCF3B0"/>
<path d="M75.1045 27.4287C75.9845 28.5936 76.8645 29.7585 77.7711 30.9587C77.567 31.1129 77.3628 31.2671 77.1525 31.426C76.4541 30.5014 75.7557 29.5769 75.0362 28.6244C74.406 29.1004 73.7759 29.5765 73.1266 30.0669C73.7552 30.899 74.3837 31.731 75.0314 32.5883C74.8361 32.7358 74.6408 32.8833 74.4397 33.0353C73.8111 32.2032 73.1825 31.3712 72.5349 30.5139C71.7007 31.1441 70.8664 31.7744 70.0068 32.4237C69.8252 32.1833 69.6437 31.943 69.4566 31.6953C71.3204 30.2873 73.1842 28.8794 75.1045 27.4287Z" fill="#FCF3B0"/>
<path d="M49.334 14.4199C53.0175 14.6496 53.0175 14.6496 53.663 15.2865C54.0819 15.7478 54.1816 16.2917 54.1378 16.8728C54.0658 17.4637 53.8142 17.9173 53.3013 18.2896C53.127 18.4053 52.8931 18.5517 52.6674 18.5376C52.7998 18.7971 52.9334 19.0561 53.0674 19.3149C53.1103 19.398 53.1531 19.481 53.196 19.564C53.2104 19.5919 53.2248 19.6199 53.2396 19.6486C53.3277 19.8201 53.4145 19.9921 53.5003 20.1645C53.5105 20.1851 53.5208 20.2058 53.5314 20.227C53.5736 20.3119 53.6157 20.3967 53.6578 20.4815C53.7846 20.7374 53.9142 20.9915 54.0523 21.2425C54.1283 21.3816 54.1283 21.3816 54.1261 21.4167C53.7824 21.3953 53.4386 21.3739 53.0845 21.3518C53.0508 21.2838 53.0171 21.2159 52.9824 21.1459C52.6771 20.5301 52.6771 20.5301 52.3657 19.9169C52.3514 19.889 52.3371 19.8611 52.3223 19.8324C52.2928 19.7749 52.2633 19.7175 52.2338 19.66C52.147 19.4908 52.0604 19.3216 51.9742 19.1522C51.9449 19.0945 51.9153 19.0368 51.8858 18.9792C51.8681 18.9443 51.8505 18.9095 51.8322 18.8736C51.8164 18.8425 51.8006 18.8115 51.7842 18.7794C51.7507 18.7048 51.7507 18.7048 51.7547 18.6409C51.1589 18.6038 50.5631 18.5666 49.9492 18.5283C49.8953 19.3922 49.8415 20.256 49.786 21.1461C49.4995 21.1282 49.2131 21.1104 48.9179 21.0919C49.0552 18.8902 49.1925 16.6884 49.334 14.4199Z" fill="#FCF3B0"/>
<path d="M64.041 17.8477C67.0862 19.9328 67.0862 19.9328 67.314 20.8105C67.4373 21.4213 67.2441 21.9395 66.9087 22.416C66.544 22.8865 66.0955 23.147 65.4643 23.2038C65.2553 23.2138 64.9795 23.2197 64.7929 23.0919C64.7735 23.3826 64.7556 23.6734 64.7379 23.9643C64.7322 24.0576 64.7264 24.1509 64.7206 24.2441C64.7187 24.2755 64.7168 24.3068 64.7148 24.3391C64.7026 24.5315 64.6889 24.7237 64.6742 24.9157C64.6724 24.9387 64.6707 24.9617 64.6688 24.9853C64.6616 25.0798 64.6543 25.1742 64.6469 25.2687C64.6247 25.5534 64.6058 25.8379 64.5956 26.1242C64.5897 26.2826 64.5897 26.2826 64.5698 26.3117C64.2856 26.1171 64.0014 25.9225 63.7086 25.7221C63.7145 25.6465 63.7205 25.5708 63.7265 25.4929C63.78 24.8077 63.78 24.8077 63.8269 24.1216C63.8289 24.0903 63.8309 24.059 63.8329 24.0268C63.837 23.9623 63.8411 23.8978 63.8452 23.8334C63.8574 23.6436 63.8698 23.4539 63.8827 23.2643C63.887 23.1997 63.8912 23.1351 63.8954 23.0704C63.8981 23.0315 63.9008 22.9925 63.9035 22.9523C63.9058 22.9175 63.9082 22.8827 63.9106 22.8469C63.9201 22.7656 63.9201 22.7656 63.9562 22.7128C63.4636 22.3755 62.9711 22.0382 62.4636 21.6907C61.9746 22.4049 61.4856 23.119 60.9817 23.8548C60.7449 23.6927 60.5081 23.5305 60.2641 23.3635C61.5105 21.5432 62.7569 19.723 64.041 17.8477Z" fill="#FCF3B0"/>
<path d="M50.4326 17.254V15.4844H52.2022C52.594 15.5909 52.8029 15.6661 53.087 15.9268C53.3372 16.4724 53.3724 16.7681 53.087 17.254C52.1066 17.4184 51.5332 17.4395 50.4326 17.254Z" fill="#E22D2D"/>
<path d="M63.5325 20.8437L64.4395 19.3242L65.9589 20.2312C66.2408 20.5234 66.3815 20.6951 66.4919 21.0645C66.4271 21.6613 66.3058 21.9332 65.8117 22.2042C64.8856 21.8428 64.3824 21.5671 63.5325 20.8437Z" fill="#E22D2D"/>
<path d="M15.9209 34.0947C16.1124 33.8425 16.3039 33.5902 16.5012 33.3303C18.0141 34.4787 19.527 35.6272 21.0858 36.8104C21.8002 35.8693 22.5147 34.9281 23.2508 33.9584C23.4278 34.0928 23.6049 34.2272 23.7873 34.3656C22.8813 35.5591 21.9753 36.7525 21.0419 37.9822C19.352 36.6993 17.662 35.4165 15.9209 34.0947Z" fill="#FCF3B0"/>
</svg>
