<svg version="1.0" xmlns="http://www.w3.org/2000/svg" width="500" height="500" viewBox="0 0 500 500" preserveAspectRatio="xMidYMid meet" transform="rotate(0) scale(1, 1)">

<g transform="translate(0.000000,500.000000) scale(0.100000,-0.100000)" fill="#ffffff" stroke="none">
<path d="M2410 3947 c-19 -7 -43 -18 -53 -23 -11 -6 -533 -525 -1162 -1154&#10;-842 -842 -1149 -1155 -1166 -1189 -33 -66 -32 -158 3 -226 32 -62 225 -253&#10;288 -286 64 -33 166 -33 235 0 40 19 240 213 993 965 518 518 945 943 948 946&#10;2 2 431 -422 952 -942 1032 -1032 994 -998 1108 -998 97 0 138 23 268 149 138&#10;136 168 185 169 276 1 123 68 49 -1191 1306 -799 798 -1159 1152 -1187 1165&#10;-50 23 -158 29 -205 11z"/>
</g>
</svg>