<?xml version="1.0" standalone="no"?>
<!DOCTYPE svg PUBLIC "-//W3C//DTD SVG 20010904//EN"
 "http://www.w3.org/TR/2001/REC-SVG-20010904/DTD/svg10.dtd">
<svg version="1.0" xmlns="http://www.w3.org/2000/svg"
 width="500.000000pt" height="500.000000pt" viewBox="0 0 500.000000 500.000000"
 preserveAspectRatio="xMidYMid meet">

<g transform="translate(0.000000,500.000000) scale(0.100000,-0.100000)"
fill="#000000" stroke="none">
<path d="M2410 3947 c-19 -7 -43 -18 -53 -23 -11 -6 -533 -525 -1162 -1154
-842 -842 -1149 -1155 -1166 -1189 -33 -66 -32 -158 3 -226 32 -62 225 -253
288 -286 64 -33 166 -33 235 0 40 19 240 213 993 965 518 518 945 943 948 946
2 2 431 -422 952 -942 1032 -1032 994 -998 1108 -998 97 0 138 23 268 149 138
136 168 185 169 276 1 123 68 49 -1191 1306 -799 798 -1159 1152 -1187 1165
-50 23 -158 29 -205 11z"/>
</g>
</svg>
